<?xml version="1.0" standalone="no"?>
<!DOCTYPE svg PUBLIC "-//W3C//DTD SVG 20010904//EN"
 "http://www.w3.org/TR/2001/REC-SVG-20010904/DTD/svg10.dtd">
<svg version="1.0" xmlns="http://www.w3.org/2000/svg"
 width="700.000000pt" height="700.000000pt" viewBox="0 0 700.000000 700.000000"
 preserveAspectRatio="xMidYMid meet">
<metadata>
Created by potrace 1.14, written by Peter Selinger 2001-2017
</metadata>
<g transform="translate(0.000000,700.000000) scale(0.100000,-0.100000)"
fill="#000000" stroke="none">
<path d="M3335 6989 c-22 -4 -57 -11 -78 -14 -66 -11 -189 -55 -267 -96 -296
-156 -461 -421 -438 -705 3 -49 9 -98 11 -109 3 -11 8 -33 12 -50 32 -145 129
-360 240 -530 72 -112 271 -377 330 -441 6 -6 24 -28 40 -49 17 -21 44 -54 60
-75 73 -88 100 -122 184 -229 50 -63 89 -116 87 -118 -1 -2 -26 1 -54 7 -46 8
-94 14 -207 26 -106 11 -435 5 -555 -11 -19 -2 -60 -7 -90 -10 -170 -19 -451
-85 -652 -154 -306 -106 -558 -239 -803 -424 -268 -204 -503 -525 -615 -842
-45 -128 -59 -207 -57 -310 2 -80 5 -95 30 -131 42 -62 148 -131 267 -173 83
-29 180 -58 225 -66 22 -5 45 -9 50 -10 63 -14 126 -26 150 -29 17 -2 57 -7
90 -11 33 -3 71 -9 85 -11 148 -24 606 -23 918 2 l72 6 0 -404 c0 -397 0 -404
-21 -421 -28 -25 -68 -113 -72 -162 -6 -75 21 -158 68 -209 l25 -27 0 -605 0
-604 568 0 567 1 -377 187 -377 187 0 417 c-1 326 2 419 12 430 79 82 101 209
54 311 -14 29 -34 62 -46 74 -21 22 -21 27 -21 455 l0 433 121 28 c327 78 664
221 926 393 327 216 540 475 605 734 18 73 20 103 15 210 -4 69 -11 140 -16
159 -6 19 -13 52 -16 74 -27 181 -191 514 -388 787 -50 70 -283 368 -349 445
-58 69 -98 121 -98 126 0 4 8 6 18 5 32 -1 136 14 202 31 89 22 201 67 279
113 62 36 77 47 141 104 14 12 30 25 36 29 7 4 317 -70 689 -163 373 -94 680
-170 682 -170 4 0 -24 -53 -58 -110 -346 -578 -658 -1305 -705 -1639 -2 -20
-7 -46 -10 -59 -7 -32 -6 -199 1 -247 49 -322 269 -583 582 -690 107 -37 301
-52 401 -31 264 56 469 196 593 407 37 65 77 155 85 194 2 11 10 47 18 80 57
239 -41 645 -286 1179 -63 139 -188 390 -236 478 -16 29 -46 85 -67 123 -36
68 -98 177 -137 242 -17 29 -17 31 -1 27 10 -2 89 -22 177 -44 87 -22 163 -40
169 -40 5 0 -84 56 -199 125 -115 69 -207 125 -204 125 3 0 46 2 95 4 105 5
131 10 203 37 85 31 113 48 170 106 96 97 144 240 141 425 -2 120 3 117 -149
113 -122 -3 -181 -15 -265 -55 -184 -88 -276 -265 -270 -521 2 -59 0 -67 -14
-59 -135 76 -1196 720 -1196 727 -11 181 -149 397 -336 524 -96 65 -272 140
-364 155 -16 2 -54 8 -83 13 -66 10 -263 10 -317 0z"/>
</g>
</svg>
